<mxfile host="65bd71144e">
    <diagram id="nnQrtxlSm0PfFJTszCwV" name="Página-1">
        <mxGraphModel dx="994" dy="331" grid="0" gridSize="10" guides="1" tooltips="1" connect="1" arrows="1" fold="1" page="1" pageScale="1" pageWidth="827" pageHeight="1169" math="0" shadow="0">
            <root>
                <mxCell id="0"/>
                <mxCell id="1" parent="0"/>
                <mxCell id="2" value="" style="rounded=0;whiteSpace=wrap;html=1;" parent="1" vertex="1">
                    <mxGeometry x="69" y="30" width="690" height="530" as="geometry"/>
                </mxCell>
                <mxCell id="3" value="&lt;div style=&quot;text-align: justify;&quot;&gt;&lt;span style=&quot;background-color: initial;&quot;&gt;Historia De Usuario&lt;/span&gt;&lt;/div&gt;" style="rounded=0;whiteSpace=wrap;html=1;align=left;" parent="1" vertex="1">
                    <mxGeometry x="69" y="30" width="690" height="60" as="geometry"/>
                </mxCell>
                <mxCell id="4" value="HU01" style="rounded=0;whiteSpace=wrap;html=1;" parent="1" vertex="1">
                    <mxGeometry x="69" y="90" width="120" height="40" as="geometry"/>
                </mxCell>
                <mxCell id="5" value="&lt;div style=&quot;text-align: justify;&quot;&gt;&lt;span style=&quot;background-color: initial;&quot;&gt;Nombre: Operaciones CRUD para una lista de tareas&amp;nbsp;&lt;/span&gt;&lt;/div&gt;" style="rounded=0;whiteSpace=wrap;html=1;align=left;" parent="1" vertex="1">
                    <mxGeometry x="189" y="90" width="570" height="40" as="geometry"/>
                </mxCell>
                <mxCell id="6" value="Usuario: Cliente" style="rounded=0;whiteSpace=wrap;html=1;align=left;" parent="1" vertex="1">
                    <mxGeometry x="69" y="130" width="690" height="40" as="geometry"/>
                </mxCell>
                <mxCell id="7" value="Modificación de Historia Número" style="rounded=0;whiteSpace=wrap;html=1;align=left;" parent="1" vertex="1">
                    <mxGeometry x="69" y="170" width="341" height="40" as="geometry"/>
                </mxCell>
                <mxCell id="8" value="Iteración Asignada: 1" style="rounded=0;whiteSpace=wrap;html=1;align=left;" parent="1" vertex="1">
                    <mxGeometry x="410" y="170" width="349" height="40" as="geometry"/>
                </mxCell>
                <mxCell id="9" value="Prioridad en Negocio: Alto" style="rounded=0;whiteSpace=wrap;html=1;align=left;" parent="1" vertex="1">
                    <mxGeometry x="69" y="210" width="341" height="40" as="geometry"/>
                </mxCell>
                <mxCell id="10" value="Puntos Estimados:&amp;nbsp;" style="rounded=0;whiteSpace=wrap;html=1;align=left;" parent="1" vertex="1">
                    <mxGeometry x="410" y="210" width="349" height="40" as="geometry"/>
                </mxCell>
                <mxCell id="11" value="Riesgo en Desarrollo:&amp;nbsp;" style="rounded=0;whiteSpace=wrap;html=1;align=left;" parent="1" vertex="1">
                    <mxGeometry x="69" y="250" width="341" height="40" as="geometry"/>
                </mxCell>
                <mxCell id="12" value="Puntos Reales" style="rounded=0;whiteSpace=wrap;html=1;align=left;" parent="1" vertex="1">
                    <mxGeometry x="410" y="250" width="349" height="40" as="geometry"/>
                </mxCell>
                <mxCell id="14" value="Observaciones:" style="rounded=0;whiteSpace=wrap;html=1;align=left;" parent="1" vertex="1">
                    <mxGeometry x="69" y="500" width="690" height="30" as="geometry"/>
                </mxCell>
                <mxCell id="15" value="&lt;div style=&quot;text-align: justify;&quot;&gt;&lt;span style=&quot;background-color: initial;&quot;&gt;Descripción:&lt;/span&gt;&lt;/div&gt;" style="rounded=0;whiteSpace=wrap;html=1;align=left;" parent="1" vertex="1">
                    <mxGeometry x="69" y="290" width="90" height="80" as="geometry"/>
                </mxCell>
                <mxCell id="16" value="Criterios de aceptación:" style="rounded=0;whiteSpace=wrap;html=1;align=left;" parent="1" vertex="1">
                    <mxGeometry x="69" y="370" width="690" height="30" as="geometry"/>
                </mxCell>
                <mxCell id="17" value="&lt;div style=&quot;text-align: justify;&quot;&gt;Como usuario deseo una aplicación en una interfaz de consola que realice las actividades de gestión de tareas. Es decir, deseo poder crear, visualizar, borrar y marcar como completadas las tareas que se tengan.&lt;br&gt;&lt;/div&gt;" style="rounded=0;whiteSpace=wrap;html=1;align=left;" parent="1" vertex="1">
                    <mxGeometry x="159" y="290" width="600" height="80" as="geometry"/>
                </mxCell>
                <mxCell id="18" value="1. Como usuario, quiero poder ejecutar el programa en mi consola para acceder a las funcionalidades.&lt;br&gt;2. Como usuario, deseo que el programa tenga interfaz en consola que sea intuitiva y fácil de usar.&lt;br&gt;&lt;div&gt;3. Como usuario, quiero tener la capacidad de agregar nuevas tareas a mi lista.&lt;/div&gt;&lt;div&gt;4. Como usuario, deseo poder eliminar tareas de la lista sin importar el estado en que se encuentre (completado o pendiente).&lt;/div&gt;&lt;div&gt;5. Como usuario, deseo poder marcar una tarea como completada para indicar que he terminado de hacerla.&lt;/div&gt;&lt;div&gt;6. Como usuario, deseo poder ver todas mis tareas de forma clara en la consola.&lt;/div&gt;" style="rounded=0;whiteSpace=wrap;html=1;align=left;" parent="1" vertex="1">
                    <mxGeometry x="69" y="400" width="690" height="100" as="geometry"/>
                </mxCell>
                <mxCell id="19" value="* El programa debe almacenar la lista de tareas de manera persistente, de modo que los datos se conserven entre sesiones." style="rounded=0;whiteSpace=wrap;html=1;align=left;" parent="1" vertex="1">
                    <mxGeometry x="69" y="530" width="690" height="30" as="geometry"/>
                </mxCell>
                <mxCell id="20" value="" style="rounded=0;whiteSpace=wrap;html=1;" parent="1" vertex="1">
                    <mxGeometry x="69" y="609" width="690" height="530" as="geometry"/>
                </mxCell>
                <mxCell id="21" value="&lt;div style=&quot;text-align: justify;&quot;&gt;&lt;span style=&quot;background-color: initial;&quot;&gt;Historia De Usuario&lt;/span&gt;&lt;/div&gt;" style="rounded=0;whiteSpace=wrap;html=1;align=left;" parent="1" vertex="1">
                    <mxGeometry x="69" y="609" width="690" height="60" as="geometry"/>
                </mxCell>
                <mxCell id="22" value="HU02" style="rounded=0;whiteSpace=wrap;html=1;" parent="1" vertex="1">
                    <mxGeometry x="69" y="669" width="120" height="40" as="geometry"/>
                </mxCell>
                <mxCell id="23" value="&lt;div style=&quot;text-align: justify;&quot;&gt;&lt;span style=&quot;background-color: initial;&quot;&gt;Nombre: Filtrado de la lista de tareas&amp;nbsp;&lt;/span&gt;&lt;/div&gt;" style="rounded=0;whiteSpace=wrap;html=1;align=left;" parent="1" vertex="1">
                    <mxGeometry x="189" y="669" width="570" height="40" as="geometry"/>
                </mxCell>
                <mxCell id="24" value="Usuario: Cliente" style="rounded=0;whiteSpace=wrap;html=1;align=left;" parent="1" vertex="1">
                    <mxGeometry x="69" y="709" width="690" height="40" as="geometry"/>
                </mxCell>
                <mxCell id="25" value="Modificación de Historia Número" style="rounded=0;whiteSpace=wrap;html=1;align=left;" parent="1" vertex="1">
                    <mxGeometry x="69" y="749" width="341" height="40" as="geometry"/>
                </mxCell>
                <mxCell id="26" value="Iteración Asignada: 2" style="rounded=0;whiteSpace=wrap;html=1;align=left;" parent="1" vertex="1">
                    <mxGeometry x="410" y="749" width="349" height="40" as="geometry"/>
                </mxCell>
                <mxCell id="27" value="Prioridad en Negocio: Alto" style="rounded=0;whiteSpace=wrap;html=1;align=left;" parent="1" vertex="1">
                    <mxGeometry x="69" y="789" width="341" height="40" as="geometry"/>
                </mxCell>
                <mxCell id="28" value="Puntos Estimados:&amp;nbsp;" style="rounded=0;whiteSpace=wrap;html=1;align=left;" parent="1" vertex="1">
                    <mxGeometry x="410" y="789" width="349" height="40" as="geometry"/>
                </mxCell>
                <mxCell id="29" value="Riesgo en Desarrollo:&amp;nbsp;" style="rounded=0;whiteSpace=wrap;html=1;align=left;" parent="1" vertex="1">
                    <mxGeometry x="69" y="829" width="341" height="40" as="geometry"/>
                </mxCell>
                <mxCell id="30" value="Puntos Reales" style="rounded=0;whiteSpace=wrap;html=1;align=left;" parent="1" vertex="1">
                    <mxGeometry x="410" y="829" width="349" height="40" as="geometry"/>
                </mxCell>
                <mxCell id="31" value="Observaciones:" style="rounded=0;whiteSpace=wrap;html=1;align=left;" parent="1" vertex="1">
                    <mxGeometry x="69" y="1079" width="690" height="30" as="geometry"/>
                </mxCell>
                <mxCell id="32" value="&lt;div style=&quot;text-align: justify;&quot;&gt;&lt;span style=&quot;background-color: initial;&quot;&gt;Descripción:&lt;/span&gt;&lt;/div&gt;" style="rounded=0;whiteSpace=wrap;html=1;align=left;" parent="1" vertex="1">
                    <mxGeometry x="69" y="869" width="90" height="80" as="geometry"/>
                </mxCell>
                <mxCell id="33" value="Criterios de aceptación:" style="rounded=0;whiteSpace=wrap;html=1;align=left;" parent="1" vertex="1">
                    <mxGeometry x="69" y="949" width="690" height="30" as="geometry"/>
                </mxCell>
                <mxCell id="34" value="&lt;div style=&quot;text-align: justify;&quot;&gt;Como usuario deseo poder visualizar la lista de tareas mediante un de manera filtrada en base a los estados: completado y pendientes.&lt;br&gt;&lt;/div&gt;" style="rounded=0;whiteSpace=wrap;html=1;align=left;" parent="1" vertex="1">
                    <mxGeometry x="159" y="869" width="600" height="80" as="geometry"/>
                </mxCell>
                <mxCell id="35" value="1. Como usuario, quiero poder ejecutar el programa en mi consola para acceder a las funcionalidades.&lt;br&gt;2. Como usuario, deseo que el programa tenga interfaz en consola que sea intuitiva y fácil de usar.&lt;br&gt;&lt;div&gt;3.&amp;nbsp;Como usuario, quiero poder filtrar mis tareas según su estado (pendiente o completada) para visualizar solo las que me interesen en un momento dado.&lt;/div&gt;" style="rounded=0;whiteSpace=wrap;html=1;align=left;" parent="1" vertex="1">
                    <mxGeometry x="69" y="979" width="690" height="100" as="geometry"/>
                </mxCell>
                <mxCell id="36" value="* El programa debe almacenar la lista de tareas de manera persistente, de modo que los datos se conserven entre sesiones." style="rounded=0;whiteSpace=wrap;html=1;align=left;" parent="1" vertex="1">
                    <mxGeometry x="69" y="1109" width="690" height="30" as="geometry"/>
                </mxCell>
            </root>
        </mxGraphModel>
    </diagram>
</mxfile>